<svg xmlns="http://www.w3.org/2000/svg" viewBox="0 0 200 90"><title>environmentalProjects</title><g id="00e9649e-ef50-455c-9d2f-677fefda66a8" data-name="ARTWORK"><path d="M48.58,60.89a3.51,3.51,0,0,1,3.54-3.54,8.24,8.24,0,0,1,1.18,0,10.49,10.49,0,0,1,2.36.71V18.17H85.4a.5.5,0,0,1,.5.5v2.4a7.5,7.5,0,0,1,1.58-.17c.14,0,.44,0,.75,0s.46,0,.67,0V18.43a3.5,3.5,0,0,0-3.5-3.5H55.66v-4a10.27,10.27,0,0,0-2.36-.71,7.09,7.09,0,0,0-1.18,0,5.91,5.91,0,0,0-5.9,5.89v44.8a6.22,6.22,0,0,0,5.9,6.24H79.66V64.37H52.12A3.46,3.46,0,0,1,48.58,60.89Z" style="fill:#1f5748"/><path d="M70.25,28.53c.24,0,.55.27.8.71l1,1.69-1,.6,3.44,1.36.62-3.7-1.05.6-1-1.68a3,3,0,0,0-5.54,0l-1.42,2.47,2,1.13,1.43-2.47C69.7,28.8,70,28.53,70.25,28.53Z" style="fill:#1f5748"/><path d="M98.78,53.58l1.44.39a16.33,16.33,0,0,1,2-2.87c2.34,1.66,5.91,1.16,8.37-1.3,2.7-2.7,3.33-11.58,3.33-11.58a13.61,13.61,0,0,1-4.76,1.21c-2.76.24-5.32.62-6.82,2.12A6.91,6.91,0,0,0,100.52,49a42.3,42.3,0,0,1,7.65-5A34.74,34.74,0,0,0,98.78,53.58Z" style="fill:#1f5748"/><path d="M62.79,39.18a3.28,3.28,0,0,0,3,1.48h2.85V38.39H65.77a1.22,1.22,0,0,1-1-.34A1.19,1.19,0,0,1,65,37l1-1.68,1,.6-.55-3.81-3.51,1.47,1,.6-1,1.69A3.29,3.29,0,0,0,62.79,39.18Z" style="fill:#1f5748"/><path d="M72.79,40.66h1.94a3,3,0,0,0,2.77-4.79L76.07,33.4l-2,1.13L75.54,37a1.22,1.22,0,0,1,.21,1c-.12.21-.51.34-1,.34H72.79v-1.2l-2.92,2.32,2.92,2.36Z" style="fill:#1f5748"/><path d="M115.94,67.39H96.77a1,1,0,0,0,0,2h19.17a1,1,0,0,0,0-2Z" style="fill:#1f5748"/><path d="M115.94,61H96.77a1,1,0,0,0,0,2h19.17a1,1,0,0,0,0-2Z" style="fill:#1f5748"/><path d="M151.29,14.93H121.54v-4a10.11,10.11,0,0,0-2.35-.71,7.09,7.09,0,0,0-1.18,0,5.91,5.91,0,0,0-5.9,5.89v9.54h8.73a5.36,5.36,0,0,1,.7.06V18.17h29.75a.5.5,0,0,1,.5.5v45.2a.5.5,0,0,1-.5.5H126.34v2.76h24.95a3.5,3.5,0,0,0,3.5-3.5V18.43A3.5,3.5,0,0,0,151.29,14.93Z" style="fill:#1f5748"/><path d="M142.3,35.91a5.42,5.42,0,0,0-.62-2.51l-4.77-7.8-4.77,7.8a5.3,5.3,0,0,0-.62,2.51,5.39,5.39,0,0,0,10.78,0ZM139,37.51a2.57,2.57,0,0,0,.09-2.92.5.5,0,1,1,.85-.53,3.57,3.57,0,0,1-.13,4,.49.49,0,0,1-.41.21.53.53,0,0,1-.29-.1A.51.51,0,0,1,139,37.51Z" style="fill:#1f5748"/><path d="M127.32,56.43h19.17a1,1,0,0,0,0-2H127.32a1,1,0,0,0,0,2Z" style="fill:#1f5748"/><path d="M120.84,27.63H91.09v-4a10.11,10.11,0,0,0-2.35-.71,7.09,7.09,0,0,0-1.18,0,5.91,5.91,0,0,0-5.9,5.89v44.8a6.21,6.21,0,0,0,5.9,6.24h33.28a3.5,3.5,0,0,0,3.5-3.5V31.13A3.51,3.51,0,0,0,120.84,27.63Zm.5,48.94a.5.5,0,0,1-.5.5H87.56A3.46,3.46,0,0,1,84,73.59a3.5,3.5,0,0,1,3.54-3.53,6.87,6.87,0,0,1,1.18,0,9.82,9.82,0,0,1,2.35.71V30.88h29.75a.5.5,0,0,1,.5.5Z" style="fill:#1f5748"/><path d="M126.32,49.06a1,1,0,0,0,1,1h19.17a1,1,0,0,0,0-2H127.32A1,1,0,0,0,126.32,49.06Z" style="fill:#1f5748"/><path d="M79.69,54.43H61.44a1,1,0,0,0,0,2H79.69Z" style="fill:#1f5748"/><path d="M79.69,48.06H61.44a1,1,0,0,0,0,2H79.69Z" style="fill:#1f5748"/></g></svg>