<svg xmlns="http://www.w3.org/2000/svg" viewBox="0 0 200 90"><title>naturalizedAreas</title><g id="d0509f53-3304-46c3-904d-e7a2b17c171a" data-name="ARTWORK"><path d="M141.28,52.75a4.43,4.43,0,1,0-4.42-4.43A4.44,4.44,0,0,0,141.28,52.75Zm0-6.85a2.43,2.43,0,1,1-2.42,2.42A2.42,2.42,0,0,1,141.28,45.9Z" style="fill:#1e5748"/><path d="M145.69,66.32V57.49a4,4,0,0,0-4-4h-.79a4,4,0,0,0-4,4v0L128.36,49A2,2,0,0,0,127,48.4h-7.86V27.83h6.12a1.11,1.11,0,0,0,.68-2l-20-15.46a2.22,2.22,0,0,0-2.7,0L83.64,25.46a1.32,1.32,0,0,0,.81,2.37h5.92V80.07h3V55.62h22.72V80.07h3V55.73h4.81a2,2,0,0,1,1.41.59L148.89,79.9h10.37Zm-29.6-13.7H93.37V27.83h22.72Zm27.6,11.7-4.81-4.81v-2a2,2,0,0,1,2-2h.79a2,2,0,0,1,2,2Z" style="fill:#1e5748"/><path d="M70.6,33.54c-3.11,0-9.16,13-11.19,22.52-2-9.55-8.09-22.52-11.2-22.52-3.77,0-11.88,19.12-11.88,28,0,5.67,4.78,10.69,10.53,11.39v7h3v-7a11.38,11.38,0,0,0,9.58-7.55A12.29,12.29,0,0,0,69.24,73v7h3v-7A11.31,11.31,0,0,0,82.48,61.57C82.48,52.66,74.38,33.54,70.6,33.54ZM49.88,69.91V62.33l2.69-2.55a1,1,0,0,0-1.37-1.45l-1.32,1.25V56.14a1.51,1.51,0,0,0-3,0v8.35l-2.18-2.06a1,1,0,1,0-1.38,1.46l3.56,3.35v2.69c-4.14-.67-7.53-4.28-7.53-8.36,0-8.6,6.56-21.71,8.88-24.63,2.32,2.92,8.89,16,8.89,24.63A8.38,8.38,0,0,1,49.88,69.91Zm22.38,0V62.33L75,59.78a1,1,0,1,0-1.37-1.45l-1.33,1.25V56.14a1.51,1.51,0,0,0-3,0v8.35l-2.18-2.06a1,1,0,0,0-1.41,0,1,1,0,0,0,0,1.42l3.55,3.35v2.69c-4.14-.67-7.53-4.28-7.53-8.36,0-8.6,6.57-21.71,8.89-24.63,2.32,2.92,8.88,16,8.88,24.63A8.37,8.37,0,0,1,72.26,69.91Z" style="fill:#1e5748"/><path d="M112.11,41.23a7.38,7.38,0,1,0-14.76,0V48.1h14.76Zm-3,3.87h-8.76V41.23a4.38,4.38,0,1,1,8.76,0Z" style="fill:#1e5748"/></g></svg>