<svg xmlns="http://www.w3.org/2000/svg" viewBox="0 0 200 90"><title>parksAndGreen</title><g id="41abe3f6-a13c-4e3b-9d28-82def0c57bd2" data-name="ARTWORK"><path d="M99.45,40.46c4.67,0,6,3.44,6,6.79s-1.74,7.75-6,7.75a5.38,5.38,0,0,1-2.19-.43,5.32,5.32,0,0,1-1.15-.69,6.25,6.25,0,0,1-1.3-1.5,8.51,8.51,0,0,1-.6-1.21c-.09-.21-.16-.43-.23-.64a10.33,10.33,0,0,1-.33-1.33,11,11,0,0,1-.17-2C93.48,43.9,94.93,40.46,99.45,40.46Zm11.29,18.95-5.95-2a13.1,13.1,0,0,0-3.32-.66h-4a13.19,13.19,0,0,0-3.3.66l-5.95,2A1.78,1.78,0,0,0,87,61.27c0,.26,0,.52,0,.79v1.32a1.87,1.87,0,0,0,2,2h21.15a1.89,1.89,0,0,0,2-2V62.06C112.06,61,112,59.85,110.74,59.41Zm22.84-37.95a6.27,6.27,0,0,0,.09,1,5.94,5.94,0,0,0,.17.7l.12.34a4.78,4.78,0,0,0,.32.64A3.27,3.27,0,0,0,135,25a2.37,2.37,0,0,0,.61.37,2.82,2.82,0,0,0,1.16.23c2.24,0,3.16-2.34,3.16-4.11s-.68-3.59-3.16-3.59S133.58,19.69,133.58,21.46Zm9.14,6.45-3.15-1.06a7.83,7.83,0,0,0-1.76-.35h-2.1a7.63,7.63,0,0,0-1.75.35l-3.15,1.06a.94.94,0,0,0-.68,1c0,.14,0,.28,0,.42V30a1,1,0,0,0,1,1h11.21a1,1,0,0,0,1-1v-.7C143.42,28.75,143.4,28.14,142.72,27.91ZM38,62.23a6.15,6.15,0,0,0,.09,1,5.65,5.65,0,0,0,.17.71l.12.34a4.31,4.31,0,0,0,.33.64,3,3,0,0,0,.68.79,2.92,2.92,0,0,0,.61.37,3,3,0,0,0,1.16.23c2.24,0,3.16-2.34,3.16-4.11s-.68-3.6-3.16-3.6S38,60.46,38,62.23Zm9.14,6.44-3.15-1a7.31,7.31,0,0,0-1.76-.35H40.17a7.12,7.12,0,0,0-1.76.35l-3.15,1a.94.94,0,0,0-.68,1c0,.14,0,.28,0,.42v.7a1,1,0,0,0,1,1H46.82a1,1,0,0,0,1-1v-.7C47.87,69.51,47.86,68.9,47.17,68.67ZM58,31.19c2.68-2.68,3.31-11.51,3.31-11.51a13.61,13.61,0,0,1-4.73,1.2c-2.75.24-5.29.62-6.78,2.11A6.89,6.89,0,0,0,48,30.4a41.87,41.87,0,0,1,7.61-5A34.66,34.66,0,0,0,46.25,35l1.43.38a16.79,16.79,0,0,1,2-2.85C52,34.13,55.54,33.64,58,31.19ZM173.31,63.1a16.87,16.87,0,0,1-33.47,3l-19.16-7.5a21.82,21.82,0,0,1-41.16,3.48L56,66.61a14.84,14.84,0,1,1-15.79-16l4.24-9.89A16.88,16.88,0,1,1,69.78,32l12,8.6a21.78,21.78,0,0,1,29.68-5.47L122,25.85c0-.42-.07-.83-.07-1.25a14.84,14.84,0,1,1,28,6.8l7.44,14.88A16.88,16.88,0,0,1,173.31,63.1ZM124.93,24.6a11.84,11.84,0,1,0,11.84-11.84A11.85,11.85,0,0,0,124.93,24.6ZM53.78,40.5A13.87,13.87,0,1,0,39.9,26.63,13.88,13.88,0,0,0,53.78,40.5Zm-.72,24.86A11.84,11.84,0,1,0,41.22,77.2,11.85,11.85,0,0,0,53.06,65.36ZM78.5,59.19a22,22,0,0,1-.81-5.89,21.68,21.68,0,0,1,2.54-10.2L68.55,34.76a16.86,16.86,0,0,1-21.46,7.36L43.42,50.7A14.84,14.84,0,0,1,55.94,63.57Zm39.83-5.89A18.82,18.82,0,1,0,99.51,72.12,18.84,18.84,0,0,0,118.33,53.3Zm3,0c0,.76,0,1.51-.11,2.25l18.36,7.19A16.89,16.89,0,0,1,154.1,46.41L148,34.25a14.82,14.82,0,0,1-25.33-5l-8.76,7.7A21.8,21.8,0,0,1,121.33,53.3Zm49,9.8A13.87,13.87,0,1,0,156.44,77,13.88,13.88,0,0,0,170.31,63.1Zm-9.66,4.56C163.34,65,164,56.15,164,56.15a13.61,13.61,0,0,1-4.73,1.2c-2.75.24-5.29.62-6.78,2.11a6.89,6.89,0,0,0-1.81,7.41,41.94,41.94,0,0,1,7.61-5,34.63,34.63,0,0,0-9.34,9.55l1.43.38a16.46,16.46,0,0,1,2-2.85C154.66,70.6,158.2,70.11,160.65,67.66Z" style="fill:#1e5748"/></g></svg>