<svg xmlns="http://www.w3.org/2000/svg" viewBox="0 0 200 90"><title>plantingTrees</title><g id="19c80d75-ad23-4a81-902a-c39895f5c7cf" data-name="ARTWORK"><path d="M34,47.85h0a1.76,1.76,0,0,1,1.76,1.76V77.32a0,0,0,0,1,0,0H32.28a0,0,0,0,1,0,0V49.61A1.76,1.76,0,0,1,34,47.85Z" style="fill:#1e5748"/><line x1="38.13" y1="53" x2="33.45" y2="57.42" style="fill:#fff;stroke:#1e5748;stroke-linecap:round;stroke-miterlimit:10;stroke-width:2px"/><line x1="28.94" y1="57.78" x2="33.62" y2="62.2" style="fill:#fff;stroke:#1e5748;stroke-linecap:round;stroke-miterlimit:10;stroke-width:2px"/><path d="M83.83,47.85h0a1.76,1.76,0,0,1,1.76,1.76V77.32a0,0,0,0,1,0,0H82.07a0,0,0,0,1,0,0V49.61A1.76,1.76,0,0,1,83.83,47.85Z" style="fill:#1e5748"/><line x1="87.92" y1="53" x2="83.24" y2="57.42" style="fill:#fff;stroke:#1e5748;stroke-linecap:round;stroke-miterlimit:10;stroke-width:2px"/><line x1="78.74" y1="57.78" x2="83.41" y2="62.2" style="fill:#fff;stroke:#1e5748;stroke-linecap:round;stroke-miterlimit:10;stroke-width:2px"/><path d="M133.62,47.85h0a1.76,1.76,0,0,1,1.76,1.76V77.32a0,0,0,0,1,0,0h-3.51a0,0,0,0,1,0,0V49.61a1.76,1.76,0,0,1,1.76-1.76Z" style="fill:#1e5748"/><line x1="137.72" y1="53" x2="133.04" y2="57.42" style="fill:#fff;stroke:#1e5748;stroke-linecap:round;stroke-miterlimit:10;stroke-width:2px"/><line x1="128.53" y1="57.78" x2="133.21" y2="62.2" style="fill:#fff;stroke:#1e5748;stroke-linecap:round;stroke-miterlimit:10;stroke-width:2px"/><path d="M158.82,47.85h0a1.76,1.76,0,0,1,1.76,1.76V77.32a0,0,0,0,1,0,0h-3.51a0,0,0,0,1,0,0V49.61a1.76,1.76,0,0,1,1.76-1.76Z" style="fill:#1e5748"/><line x1="162.92" y1="53" x2="158.24" y2="57.42" style="fill:#fff;stroke:#1e5748;stroke-linecap:round;stroke-miterlimit:10;stroke-width:2px"/><line x1="153.73" y1="57.78" x2="158.41" y2="62.2" style="fill:#fff;stroke:#1e5748;stroke-linecap:round;stroke-miterlimit:10;stroke-width:2px"/><path d="M58.93,47.85h0a1.76,1.76,0,0,1,1.76,1.76V77.32a0,0,0,0,1,0,0H57.18a0,0,0,0,1,0,0V49.61a1.76,1.76,0,0,1,1.76-1.76Z" style="fill:#1e5748"/><line x1="63.03" y1="53" x2="58.35" y2="57.42" style="fill:#fff;stroke:#1e5748;stroke-linecap:round;stroke-miterlimit:10;stroke-width:2px"/><line x1="53.84" y1="57.78" x2="58.52" y2="62.2" style="fill:#fff;stroke:#1e5748;stroke-linecap:round;stroke-miterlimit:10;stroke-width:2px"/><path d="M108.73,47.85h0a1.76,1.76,0,0,1,1.76,1.76V77.32a0,0,0,0,1,0,0H107a0,0,0,0,1,0,0V49.61a1.76,1.76,0,0,1,1.76-1.76Z" style="fill:#1e5748"/><line x1="112.82" y1="53" x2="108.14" y2="57.42" style="fill:#fff;stroke:#1e5748;stroke-linecap:round;stroke-miterlimit:10;stroke-width:2px"/><line x1="103.63" y1="57.78" x2="108.31" y2="62.2" style="fill:#fff;stroke:#1e5748;stroke-linecap:round;stroke-miterlimit:10;stroke-width:2px"/><path d="M46.68,14.12c-2.89,0-6.77,7.86-8.91,16.08,2.9,5.22,6.42,13.55,7.68,20.74a10,10,0,0,0,1.23.08l.46,0c1.33-7.63,5.21-16.55,8.2-21.7C53.16,21.42,49.46,14.12,46.68,14.12Z" style="fill:#1e5748"/><path d="M70.84,14.12c-2.78,0-6.49,7.3-8.67,15.2,3,5.14,6.86,14.06,8.19,21.68l.48,0A12.1,12.1,0,0,0,72.05,51c1.26-7.2,4.79-15.55,7.69-20.78C77.6,22,73.72,14.12,70.84,14.12Z" style="fill:#1e5748"/><path d="M95,14.12c-2.69,0-6.23,6.8-8.43,14.36,3,5,7.29,14.48,8.69,22.53a10.53,10.53,0,0,0,1.7-.16,73.88,73.88,0,0,1,7.17-19.74C102.05,22.57,98,14.12,95,14.12Z" style="fill:#1e5748"/><path d="M119.16,14.12c-2.59,0-6,6.33-8.2,13.56A73.36,73.36,0,0,1,120.15,51a10.89,10.89,0,0,0,1.74-.29,73.42,73.42,0,0,1,6.63-18.6C126.52,23.23,122.26,14.12,119.16,14.12Z" style="fill:#1e5748"/><path d="M143.32,14.12c-2.5,0-5.75,5.89-8,12.81,3,4.26,8.08,15,9.67,24a11.14,11.14,0,0,0,2.12-.52A72.72,72.72,0,0,1,153,33.55C151.15,24.26,146.59,14.12,143.32,14.12Z" style="fill:#1e5748"/><path d="M45.94,55.93c0,6.85-5.41,11.61-12.09,11.61S21.77,61.87,21.77,55.93c0-11.73,10-30.87,12.08-30.87S45.94,44.2,45.94,55.93Z" style="fill:none;stroke:#1e5748;stroke-miterlimit:10;stroke-width:2.95755804172054px"/><path d="M95.74,55.93c0,6.85-5.42,11.61-12.09,11.61S71.56,61.87,71.56,55.93c0-11.73,10-30.87,12.09-30.87S95.74,44.2,95.74,55.93Z" style="fill:none;stroke:#1e5748;stroke-miterlimit:10;stroke-width:2.95755804172054px"/><path d="M145.53,55.93c0,6.85-5.41,11.61-12.09,11.61s-12.08-5.67-12.08-11.61c0-11.73,10-30.87,12.08-30.87S145.53,44.2,145.53,55.93Z" style="fill:none;stroke:#1e5748;stroke-miterlimit:10;stroke-width:2.95755804172054px"/><path d="M170.73,55.93c0,6.85-5.41,11.61-12.09,11.61s-12.08-5.67-12.08-11.61c0-11.73,10-30.87,12.08-30.87S170.73,44.2,170.73,55.93Z" style="fill:none;stroke:#1e5748;stroke-miterlimit:10;stroke-width:2.95755804172054px"/><path d="M70.84,55.93c0,6.85-5.41,11.61-12.09,11.61S46.67,61.87,46.67,55.93c0-11.73,10-30.87,12.08-30.87S70.84,44.2,70.84,55.93Z" style="fill:none;stroke:#1e5748;stroke-miterlimit:10;stroke-width:2.95755804172054px"/><path d="M120.63,55.93c0,6.85-5.41,11.61-12.08,11.61S96.46,61.87,96.46,55.93c0-11.73,10-30.87,12.09-30.87S120.63,44.2,120.63,55.93Z" style="fill:none;stroke:#1e5748;stroke-miterlimit:10;stroke-width:2.95755804172054px"/></g></svg>